<?xml version="1.0" encoding="utf-8"?><svg viewBox="0 0 21.01 21" xmlns="http://www.w3.org/2000/svg" xmlns:xlink="http://www.w3.org/1999/xlink"><style>:root>svg{display:none}:root>svg:target{display:block}</style><svg data-name="Layer 1" viewBox="0 0 17 17" id="3x3grid" xmlns="http://www.w3.org/2000/svg"><title>3x3grid</title><path d="M0 0h5v5H0zM6 0h5v5H6zM0 6h5v5H0zM6 6h5v5H6zM6 12h5v5H6zM0 12h5v5H0zM12 6h5v5h-5zM12 0h5v5h-5zM12 12h5v5h-5z"/></svg><svg id="3x3grid-blue" data-name="Layer 1" viewBox="0 0 17 17" xmlns="http://www.w3.org/2000/svg"><defs><style>.bcls-1{fill:#0065bd}</style></defs><title>3x3grid-blue</title><path class="bcls-1" d="M0 0h5v5H0zM6 0h5v5H6zM0 6h5v5H0zM6 6h5v5H6zM6 12h5v5H6zM0 12h5v5H0zM12 6h5v5h-5zM12 0h5v5h-5zM12 12h5v5h-5z"/></svg><svg id="3x3grid-dkblue" data-name="Layer 1" viewBox="0 0 17 17" xmlns="http://www.w3.org/2000/svg"><defs><style>.ccls-1{fill:#00437e}</style></defs><title>3x3grid-dkblue</title><path class="ccls-1" d="M0 0h5v5H0zM6 0h5v5H6zM0 6h5v5H0zM6 6h5v5H6zM6 12h5v5H6zM0 12h5v5H0zM12 6h5v5h-5zM12 0h5v5h-5zM12 12h5v5h-5z"/></svg><svg id="3x3grid-white" data-name="Layer 1" viewBox="0 0 17 17" xmlns="http://www.w3.org/2000/svg"><defs><style>.dcls-1{fill:#fff}</style></defs><title>3x3grid-white</title><path class="dcls-1" d="M0 0h5v5H0zM6 0h5v5H6zM0 6h5v5H0zM6 6h5v5H6zM6 12h5v5H6zM0 12h5v5H0zM12 6h5v5h-5zM12 0h5v5h-5zM12 12h5v5h-5z"/></svg><svg data-name="Layer 1" viewBox="0 0 10 21" id="chevron-left" xmlns="http://www.w3.org/2000/svg"><title>chevron-left</title><path d="M6.97 21l2.67-1.77-5.79-8.73 5.79-8.73L6.97 0 0 10.5 6.97 21z"/></svg><svg id="chevron-left-blue" data-name="Layer 1" viewBox="0 0 9.64 21" xmlns="http://www.w3.org/2000/svg"><defs><style>.fcls-1{fill:#0065bd}</style></defs><title>chevron-left-blue</title><path class="fcls-1" d="M6.97 21l2.67-1.77-5.79-8.73 5.79-8.73L6.97 0 0 10.5 6.97 21z"/></svg><svg id="chevron-left-dkblue" data-name="Layer 1" viewBox="0 0 9.64 21" xmlns="http://www.w3.org/2000/svg"><defs><style>.gcls-1{fill:#00437e}</style></defs><title>chevron-left-dkblue</title><path class="gcls-1" d="M6.97 21l2.67-1.77-5.79-8.73 5.79-8.73L6.97 0 0 10.5 6.97 21z"/></svg><svg id="chevron-left-white" data-name="Layer 1" viewBox="0 0 10 21" xmlns="http://www.w3.org/2000/svg"><defs><style>.hcls-1{fill:#fff}</style></defs><title>chevron-left-white</title><path class="hcls-1" d="M6.97 21l2.67-1.77-5.79-8.73 5.79-8.73L6.97 0 0 10.5 6.97 21z"/></svg><svg data-name="Layer 1" viewBox="0 0 10 21" id="chevron-right" xmlns="http://www.w3.org/2000/svg"><title>chevron-right</title><path d="M2.67 21L0 19.23l5.79-8.73L0 1.77 2.67 0l6.97 10.5L2.67 21z"/></svg><svg id="chevron-right--white" data-name="Layer 1" viewBox="0 0 10 21" xmlns="http://www.w3.org/2000/svg"><defs><style>.jcls-1{fill:#fff}</style></defs><title>chevron-right--white</title><path class="jcls-1" d="M2.67 21L0 19.23l5.79-8.73L0 1.77 2.67 0l6.97 10.5L2.67 21z"/></svg><svg id="chevron-right-blue" data-name="Layer 1" viewBox="0 0 9.64 21" xmlns="http://www.w3.org/2000/svg"><defs><style>.kcls-1{fill:#0065bd}</style></defs><title>chevron-right-blue</title><path class="kcls-1" d="M2.67 21L0 19.23l5.79-8.73L0 1.77 2.67 0l6.97 10.5L2.67 21z"/></svg><svg id="chevron-right-dkblue" data-name="Layer 1" viewBox="0 0 9.64 21" xmlns="http://www.w3.org/2000/svg"><defs><style>.lcls-1{fill:#00437e}</style></defs><title>chevron-right-dkblue</title><path class="lcls-1" d="M2.67 21L0 19.23l5.79-8.73L0 1.77 2.67 0l6.97 10.5L2.67 21z"/></svg><svg id="chevron-right-white" data-name="Layer 1" viewBox="0 0 10 21" xmlns="http://www.w3.org/2000/svg"><defs><style>.mcls-1{fill:#fff}</style></defs><title>chevron-right-white</title><path class="mcls-1" d="M2.67 21L0 19.23l5.79-8.73L0 1.77 2.67 0l6.97 10.5L2.67 21z"/></svg><svg data-name="Layer 1" viewBox="0 0 15 15" id="external-15" xmlns="http://www.w3.org/2000/svg"><title>external-15</title><path d="M10 14H1V5h3V4H.01L0 15h11v-4h-1v3z"/><path d="M7 0v2h4.54L6.28 7.27l1.41 1.41L13 3.37V8h2V0H7z"/></svg><svg id="external-15-blue" data-name="Layer 1" viewBox="0 0 15 15" xmlns="http://www.w3.org/2000/svg"><defs><style>.ocls-1{fill:#0065bd}</style></defs><title>external-15-blue</title><path class="ocls-1" d="M10 14H1V5h3V4H.01L0 15h11v-4h-1v3z"/><path class="ocls-1" d="M7 0v2h4.54L6.28 7.27l1.41 1.41L13 3.37V8h2V0H7z"/></svg><svg id="external-15-dkblue" data-name="Layer 1" viewBox="0 0 15 15" xmlns="http://www.w3.org/2000/svg"><defs><style>.pcls-1{fill:#00437e}</style></defs><title>external-15-dkblue</title><path class="pcls-1" d="M10 14H1V5h3V4H.01L0 15h11v-4h-1v3z"/><path class="pcls-1" d="M7 0v2h4.54L6.28 7.27l1.41 1.41L13 3.37V8h2V0H7z"/></svg><svg id="external-15-white" data-name="Layer 1" viewBox="0 0 15 15" xmlns="http://www.w3.org/2000/svg"><defs><style>.qcls-1{fill:#fff}</style></defs><title>external-15-white</title><path class="qcls-1" d="M10 14H1V5h3V4H.01L0 15h11v-4h-1v3z"/><path class="qcls-1" d="M7 0v2h4.54L6.28 7.27l1.41 1.41L13 3.37V8h2V0H7z"/></svg><svg data-name="Layer 1" viewBox="0 0 17.01 17" id="external-17" xmlns="http://www.w3.org/2000/svg"><title>external-17</title><path d="M12 16H1V5h4V4H0v13h13v-5h-1v4z"/><path d="M17 1.41V0H8v2h5.59L7.31 8.28l1.41 1.41L15 3.42V9h2V1.41z"/></svg><svg id="external-17-blue" data-name="Layer 1" viewBox="0 0 17.01 17" xmlns="http://www.w3.org/2000/svg"><defs><style>.scls-1{fill:#0065bd}</style></defs><title>external-17-blue</title><path class="scls-1" d="M12 16H1V5h4V4H0v13h13v-5h-1v4z"/><path class="scls-1" d="M17 1.41V0H8v2h5.59L7.31 8.28l1.41 1.41L15 3.42V9h2V1.41z"/></svg><svg id="external-17-dkblue" data-name="Layer 1" viewBox="0 0 17.01 17" xmlns="http://www.w3.org/2000/svg"><defs><style>.tcls-1{fill:#00437e}</style></defs><title>external-17-dkblue</title><path class="tcls-1" d="M12 16H1V5h4V4H0v13h13v-5h-1v4z"/><path class="tcls-1" d="M17 1.41V0H8v2h5.59L7.31 8.28l1.41 1.41L15 3.42V9h2V1.41z"/></svg><svg id="external-17-white" data-name="Layer 1" viewBox="0 0 17.01 17" xmlns="http://www.w3.org/2000/svg"><defs><style>.ucls-1{fill:#fff}</style></defs><title>external-17-white</title><path class="ucls-1" d="M12 16H1V5h4V4H0v13h13v-5h-1v4z"/><path class="ucls-1" d="M17 1.41V0H8v2h5.59L7.31 8.28l1.41 1.41L15 3.42V9h2V1.41z"/></svg><svg data-name="Layer 1" viewBox="0 0 21.01 21" id="external-21" xmlns="http://www.w3.org/2000/svg"><title>external-21</title><path d="M15 15v5H1V6h5V5H0v16h16.05L16 15h-1z"/><path d="M21.01 11L21 .01 10 0v2h7.48L9.2 10.27l1.42 1.42L19 3.3V11h2.01z"/></svg><svg id="external-21-blue" data-name="Layer 1" viewBox="0 0 21.01 21" xmlns="http://www.w3.org/2000/svg"><defs><style>.wcls-1{fill:#0065bd}</style></defs><title>external-21-blue</title><path class="wcls-1" d="M15 15v5H1V6h5V5H0v16h16.05L16 15h-1z"/><path class="wcls-1" d="M21.01 11L21 .01 10 0v2h7.48L9.2 10.27l1.42 1.42L19 3.3V11h2.01z"/></svg><svg id="external-21-dkblue" data-name="Layer 1" viewBox="0 0 21.01 21" xmlns="http://www.w3.org/2000/svg"><defs><style>.xcls-1{fill:#00437e}</style></defs><title>external-21-dkblue</title><path class="xcls-1" d="M15 15v5H1V6h5V5H0v16h16.05L16 15h-1z"/><path class="xcls-1" d="M21.01 11L21 .01 10 0v2h7.48L9.2 10.27l1.42 1.42L19 3.3V11h2.01z"/></svg><svg id="external-21-white" data-name="Layer 1" viewBox="0 0 21.01 21" xmlns="http://www.w3.org/2000/svg"><defs><style>.ycls-1{fill:#fff}</style></defs><title>external-21-white</title><path class="ycls-1" d="M15 15v5H1V6h5V5H0v16h16.05L16 15h-1z"/><path class="ycls-1" d="M21.01 11L21 .01 10 0v2h7.48L9.2 10.27l1.42 1.42L19 3.3V11h2.01z"/></svg></svg>